<svg width="103" height="271" viewBox="0 0 103 271" fill="none" xmlns="http://www.w3.org/2000/svg">
<line x1="6.53697" y1="225.339" x2="6.54069" y2="232.361" stroke="white" stroke-width="12.5" stroke-linecap="round" stroke-linejoin="round"/>
<line x1="6.51817" y1="190.022" x2="6.52189" y2="197.045" stroke="white" stroke-width="12.5" stroke-linecap="round" stroke-linejoin="round"/>
<line x1="6.49938" y1="154.489" x2="6.47594" y2="110.244" stroke="white" stroke-width="12.5" stroke-linecap="round" stroke-linejoin="round"/>
<line x1="6.25" y1="-6.25" x2="-0.772884" y2="-6.25" transform="matrix(0.000529616 1 1 -0.00052962 42.3632 142.709)" stroke="white" stroke-width="12.5" stroke-linecap="round" stroke-linejoin="round"/>
<line x1="6.25" y1="-6.25" x2="-0.772884" y2="-6.25" transform="matrix(0.000529616 1 1 -0.00052962 42.382 178.025)" stroke="white" stroke-width="12.5" stroke-linecap="round" stroke-linejoin="round"/>
<line x1="6.25" y1="-6.25" x2="50.4956" y2="-6.25" transform="matrix(0.000529616 1 1 -0.00052962 42.4008 213.558)" stroke="white" stroke-width="12.5" stroke-linecap="round" stroke-linejoin="round"/>
<line x1="6.25" y1="-6.25" x2="-0.772884" y2="-6.25" transform="matrix(0.000529616 1 1 -0.00052962 71.9344 50.4144)" stroke="white" stroke-width="12.5" stroke-linecap="round" stroke-linejoin="round"/>
<line x1="6.25" y1="-6.25" x2="-0.772884" y2="-6.25" transform="matrix(0.000529616 1 1 -0.00052962 71.9532 85.7308)" stroke="white" stroke-width="12.5" stroke-linecap="round" stroke-linejoin="round"/>
<line x1="6.25" y1="-6.25" x2="50.4956" y2="-6.25" transform="matrix(0.000529616 1 1 -0.00052962 71.972 121.264)" stroke="white" stroke-width="12.5" stroke-linecap="round" stroke-linejoin="round"/>
<line x1="96.4819" y1="121.62" x2="96.4856" y2="128.643" stroke="white" stroke-width="12.5" stroke-linecap="round" stroke-linejoin="round"/>
<line x1="96.4632" y1="86.3035" x2="96.467" y2="93.3264" stroke="white" stroke-width="12.5" stroke-linecap="round" stroke-linejoin="round"/>
<line x1="96.4444" y1="50.7706" x2="96.421" y2="6.52509" stroke="white" stroke-width="12.5" stroke-linecap="round" stroke-linejoin="round"/>
</svg>
